<svg width="320" height="320" xmlns="http://www.w3.org/2000/svg">
<line x1="582" y1="390" x2="219" y2="351" stroke="black" stroke-width="3" />
<line x1="421" y1="179" x2="514" y2="483" stroke="black" stroke-width="3" />
<line x1="289" y1="417" x2="150" y2="577" stroke="black" stroke-width="3" />
<line x1="506" y1="151" x2="178" y2="398" stroke="black" stroke-width="3" />
<line x1="162" y1="89" x2="114" y2="57" stroke="black" stroke-width="3" />
<line x1="505" y1="522" x2="101" y2="398" stroke="black" stroke-width="3" />
<line x1="242" y1="295" x2="362" y2="335" stroke="black" stroke-width="3" />
<line x1="200" y1="246" x2="231" y2="453" stroke="black" stroke-width="3" />
<line x1="183" y1="93" x2="520" y2="125" stroke="black" stroke-width="3" />
<line x1="91" y1="342" x2="225" y2="585" stroke="black" stroke-width="3" />
<line x1="446" y1="179" x2="433" y2="534" stroke="black" stroke-width="3" />
<line x1="547" y1="188" x2="224" y2="374" stroke="black" stroke-width="3" />
<line x1="159" y1="190" x2="300" y2="244" stroke="black" stroke-width="3" />
<line x1="398" y1="489" x2="270" y2="590" stroke="black" stroke-width="3" />
<line x1="157" y1="70" x2="120" y2="546" stroke="black" stroke-width="3" />
<line x1="254" y1="374" x2="522" y2="240" stroke="black" stroke-width="3" />
<line x1="244" y1="296" x2="243" y2="112" stroke="black" stroke-width="3" />
<line x1="329" y1="150" x2="128" y2="589" stroke="black" stroke-width="3" />
<line x1="260" y1="372" x2="315" y2="508" stroke="black" stroke-width="3" />
<line x1="33" y1="213" x2="30" y2="597" stroke="black" stroke-width="3" />
<line x1="438" y1="154" x2="31" y2="534" stroke="black" stroke-width="3" />
<line x1="458" y1="505" x2="586" y2="536" stroke="black" stroke-width="3" />
<line x1="394" y1="551" x2="390" y2="561" stroke="black" stroke-width="3" />
<line x1="296" y1="367" x2="23" y2="194" stroke="black" stroke-width="3" />
<line x1="383" y1="357" x2="416" y2="271" stroke="black" stroke-width="3" />
<line x1="418" y1="265" x2="321" y2="37" stroke="black" stroke-width="3" />
<line x1="341" y1="137" x2="177" y2="176" stroke="black" stroke-width="3" />
<line x1="67" y1="34" x2="5" y2="125" stroke="black" stroke-width="3" />
<line x1="256" y1="480" x2="4" y2="133" stroke="black" stroke-width="3" />
<line x1="364" y1="424" x2="162" y2="334" stroke="black" stroke-width="3" />
<line x1="544" y1="262" x2="528" y2="547" stroke="black" stroke-width="3" />
<line x1="369" y1="289" x2="29" y2="133" stroke="black" stroke-width="3" />
<line x1="556" y1="372" x2="416" y2="413" stroke="black" stroke-width="3" />
<line x1="545" y1="89" x2="122" y2="214" stroke="black" stroke-width="3" />
<line x1="412" y1="396" x2="214" y2="567" stroke="black" stroke-width="3" />
<line x1="81" y1="168" x2="339" y2="260" stroke="black" stroke-width="3" />
<line x1="107" y1="472" x2="425" y2="45" stroke="black" stroke-width="3" />
<line x1="372" y1="556" x2="572" y2="339" stroke="black" stroke-width="3" />
<line x1="398" y1="18" x2="245" y2="386" stroke="black" stroke-width="3" />
<line x1="318" y1="357" x2="149" y2="270" stroke="black" stroke-width="3" />
<line x1="143" y1="534" x2="17" y2="304" stroke="black" stroke-width="3" />
<line x1="132" y1="129" x2="150" y2="284" stroke="black" stroke-width="3" />
<line x1="153" y1="125" x2="330" y2="134" stroke="black" stroke-width="3" />
<line x1="146" y1="229" x2="361" y2="562" stroke="black" stroke-width="3" />
<line x1="555" y1="134" x2="350" y2="166" stroke="black" stroke-width="3" />
<line x1="430" y1="389" x2="211" y2="278" stroke="black" stroke-width="3" />
<line x1="489" y1="445" x2="405" y2="313" stroke="black" stroke-width="3" />
<line x1="314" y1="280" x2="137" y2="208" stroke="black" stroke-width="3" />
<line x1="223" y1="221" x2="509" y2="5" stroke="black" stroke-width="3" />
<line x1="555" y1="539" x2="594" y2="68" stroke="black" stroke-width="3" />
<line x1="575" y1="337" x2="352" y2="355" stroke="black" stroke-width="3" />
<line x1="20" y1="76" x2="600" y2="185" stroke="black" stroke-width="3" />
<line x1="61" y1="99" x2="383" y2="366" stroke="black" stroke-width="3" />
<line x1="542" y1="87" x2="199" y2="169" stroke="black" stroke-width="3" />
<line x1="268" y1="406" x2="578" y2="493" stroke="black" stroke-width="3" />
<line x1="247" y1="509" x2="308" y2="400" stroke="black" stroke-width="3" />
<line x1="277" y1="71" x2="465" y2="588" stroke="black" stroke-width="3" />
<line x1="447" y1="384" x2="134" y2="403" stroke="black" stroke-width="3" />
<line x1="25" y1="207" x2="504" y2="300" stroke="black" stroke-width="3" />
<line x1="84" y1="234" x2="152" y2="34" stroke="black" stroke-width="3" />
<line x1="575" y1="16" x2="345" y2="320" stroke="black" stroke-width="3" />
<line x1="591" y1="126" x2="101" y2="349" stroke="black" stroke-width="3" />
<line x1="346" y1="229" x2="478" y2="475" stroke="black" stroke-width="3" />
<line x1="113" y1="103" x2="475" y2="332" stroke="black" stroke-width="3" />
<line x1="17" y1="238" x2="130" y2="135" stroke="black" stroke-width="3" />
<line x1="347" y1="495" x2="333" y2="369" stroke="black" stroke-width="3" />
<line x1="179" y1="368" x2="264" y2="305" stroke="black" stroke-width="3" />
<line x1="440" y1="395" x2="228" y2="318" stroke="black" stroke-width="3" />
<line x1="585" y1="312" x2="284" y2="487" stroke="black" stroke-width="3" />
<line x1="508" y1="421" x2="284" y2="386" stroke="black" stroke-width="3" />
<line x1="72" y1="157" x2="163" y2="291" stroke="black" stroke-width="3" />
<line x1="192" y1="28" x2="91" y2="39" stroke="black" stroke-width="3" />
<line x1="245" y1="197" x2="581" y2="525" stroke="black" stroke-width="3" />
<line x1="27" y1="310" x2="494" y2="133" stroke="black" stroke-width="3" />
<line x1="163" y1="324" x2="418" y2="366" stroke="black" stroke-width="3" />
<line x1="161" y1="15" x2="572" y2="58" stroke="black" stroke-width="3" />
<line x1="28" y1="397" x2="55" y2="490" stroke="black" stroke-width="3" />
<line x1="314" y1="498" x2="104" y2="42" stroke="black" stroke-width="3" />
<line x1="594" y1="417" x2="14" y2="33" stroke="black" stroke-width="3" />
<line x1="103" y1="385" x2="222" y2="503" stroke="black" stroke-width="3" />
<line x1="33" y1="94" x2="442" y2="586" stroke="black" stroke-width="3" />
<line x1="564" y1="237" x2="435" y2="449" stroke="black" stroke-width="3" />
<line x1="560" y1="570" x2="7" y2="251" stroke="black" stroke-width="3" />
<line x1="499" y1="19" x2="247" y2="402" stroke="black" stroke-width="3" />
<line x1="400" y1="164" x2="140" y2="512" stroke="black" stroke-width="3" />
<line x1="74" y1="358" x2="15" y2="318" stroke="black" stroke-width="3" />
<line x1="264" y1="211" x2="583" y2="304" stroke="black" stroke-width="3" />
<line x1="470" y1="443" x2="261" y2="483" stroke="black" stroke-width="3" />
<line x1="98" y1="338" x2="440" y2="17" stroke="black" stroke-width="3" />
<line x1="580" y1="348" x2="84" y2="276" stroke="black" stroke-width="3" />
<line x1="458" y1="385" x2="485" y2="462" stroke="black" stroke-width="3" />
<line x1="403" y1="316" x2="32" y2="475" stroke="black" stroke-width="3" />
<line x1="361" y1="569" x2="548" y2="131" stroke="black" stroke-width="3" />
<line x1="469" y1="468" x2="530" y2="236" stroke="black" stroke-width="3" />
<line x1="281" y1="595" x2="550" y2="515" stroke="black" stroke-width="3" />
<line x1="73" y1="106" x2="180" y2="397" stroke="black" stroke-width="3" />
<line x1="55" y1="536" x2="350" y2="418" stroke="black" stroke-width="3" />
<line x1="263" y1="564" x2="135" y2="296" stroke="black" stroke-width="3" />
<line x1="156" y1="129" x2="140" y2="368" stroke="black" stroke-width="3" />
<line x1="441" y1="558" x2="35" y2="402" stroke="black" stroke-width="3" />
</svg>