<svg width="320" height="320" xmlns="http://www.w3.org/2000/svg">
<path d="M286.6025403784439,200
                             A100,100 0 0,1 200,250"
                    stroke="black" stroke-width="3" fill="none"/>
<circle cx="286.6025403784439" cy="200" r="5" stroke="black" stroke-width="1" fill="red" />
<path d="M200,250
                             A100,100 0 0,1 100,150"
                    stroke="black" stroke-width="3" fill="none"/>
<circle cx="200" cy="250" r="5" stroke="black" stroke-width="1" fill="red" />
<path d="M100,150
                             A100,100 0 0,1 199.99999999999997,50"
                    stroke="black" stroke-width="3" fill="none"/>
<circle cx="100" cy="150" r="5" stroke="black" stroke-width="1" fill="red" />
<path d="M199.99999999999997,50
                             A100,100 0 0,1 300,150"
                    stroke="black" stroke-width="3" fill="none"/>
<circle cx="199.99999999999997" cy="50" r="5" stroke="black" stroke-width="1" fill="red" />
<path d="M300,150
                             A100,100 0 0,1 296.5925826289068,175.88190451025207"
                    stroke="black" stroke-width="3" fill="none"/>
<circle cx="300" cy="150" r="5" stroke="black" stroke-width="1" fill="red" /></svg>