<svg width="320" height="320" xmlns="http://www.w3.org/2000/svg">
<line x1="492" y1="65" x2="591" y2="306" stroke="black" stroke-width="3" />
<line x1="536" y1="546" x2="195" y2="10" stroke="black" stroke-width="3" />
<line x1="270" y1="103" x2="490" y2="24" stroke="black" stroke-width="3" />
<line x1="73" y1="456" x2="455" y2="294" stroke="black" stroke-width="3" />
<line x1="280" y1="457" x2="583" y2="446" stroke="black" stroke-width="3" />
<line x1="598" y1="110" x2="182" y2="397" stroke="black" stroke-width="3" />
<line x1="382" y1="559" x2="96" y2="144" stroke="black" stroke-width="3" />
<line x1="547" y1="110" x2="456" y2="409" stroke="black" stroke-width="3" />
<line x1="504" y1="491" x2="10" y2="497" stroke="black" stroke-width="3" />
<line x1="211" y1="434" x2="425" y2="573" stroke="black" stroke-width="3" />
<line x1="376" y1="388" x2="150" y2="421" stroke="black" stroke-width="3" />
<line x1="61" y1="376" x2="504" y2="437" stroke="black" stroke-width="3" />
<line x1="422" y1="373" x2="482" y2="369" stroke="black" stroke-width="3" />
<line x1="428" y1="116" x2="199" y2="327" stroke="black" stroke-width="3" />
<line x1="28" y1="313" x2="397" y2="585" stroke="black" stroke-width="3" />
<line x1="42" y1="545" x2="212" y2="580" stroke="black" stroke-width="3" />
<line x1="428" y1="190" x2="2" y2="251" stroke="black" stroke-width="3" />
<line x1="390" y1="149" x2="34" y2="379" stroke="black" stroke-width="3" />
<line x1="453" y1="112" x2="158" y2="501" stroke="black" stroke-width="3" />
<line x1="515" y1="359" x2="283" y2="335" stroke="black" stroke-width="3" />
<line x1="102" y1="477" x2="136" y2="412" stroke="black" stroke-width="3" />
<line x1="561" y1="528" x2="353" y2="93" stroke="black" stroke-width="3" />
<line x1="261" y1="492" x2="172" y2="28" stroke="black" stroke-width="3" />
<line x1="435" y1="278" x2="99" y2="504" stroke="black" stroke-width="3" />
<line x1="363" y1="214" x2="299" y2="304" stroke="black" stroke-width="3" />
<line x1="7" y1="214" x2="555" y2="523" stroke="black" stroke-width="3" />
<line x1="384" y1="270" x2="325" y2="195" stroke="black" stroke-width="3" />
<line x1="357" y1="327" x2="134" y2="423" stroke="black" stroke-width="3" />
<line x1="288" y1="578" x2="32" y2="261" stroke="black" stroke-width="3" />
<line x1="107" y1="341" x2="256" y2="514" stroke="black" stroke-width="3" />
<line x1="537" y1="346" x2="286" y2="64" stroke="black" stroke-width="3" />
<line x1="213" y1="26" x2="437" y2="372" stroke="black" stroke-width="3" />
<line x1="511" y1="564" x2="357" y2="133" stroke="black" stroke-width="3" />
<line x1="485" y1="473" x2="131" y2="558" stroke="black" stroke-width="3" />
<line x1="356" y1="188" x2="96" y2="502" stroke="black" stroke-width="3" />
<line x1="502" y1="437" x2="94" y2="178" stroke="black" stroke-width="3" />
<line x1="569" y1="359" x2="274" y2="582" stroke="black" stroke-width="3" />
<line x1="449" y1="26" x2="305" y2="70" stroke="black" stroke-width="3" />
<line x1="346" y1="547" x2="123" y2="213" stroke="black" stroke-width="3" />
<line x1="350" y1="130" x2="595" y2="467" stroke="black" stroke-width="3" />
<line x1="91" y1="418" x2="429" y2="87" stroke="black" stroke-width="3" />
<line x1="485" y1="430" x2="530" y2="453" stroke="black" stroke-width="3" />
<line x1="478" y1="232" x2="418" y2="408" stroke="black" stroke-width="3" />
<line x1="9" y1="233" x2="509" y2="509" stroke="black" stroke-width="3" />
<line x1="259" y1="161" x2="138" y2="472" stroke="black" stroke-width="3" />
<line x1="37" y1="439" x2="302" y2="223" stroke="black" stroke-width="3" />
<line x1="294" y1="77" x2="1" y2="257" stroke="black" stroke-width="3" />
<line x1="528" y1="543" x2="446" y2="244" stroke="black" stroke-width="3" />
<line x1="257" y1="83" x2="212" y2="128" stroke="black" stroke-width="3" />
<line x1="229" y1="391" x2="86" y2="585" stroke="black" stroke-width="3" />
<line x1="443" y1="296" x2="363" y2="176" stroke="black" stroke-width="3" />
<line x1="149" y1="146" x2="399" y2="122" stroke="black" stroke-width="3" />
<line x1="116" y1="250" x2="591" y2="497" stroke="black" stroke-width="3" />
<line x1="172" y1="468" x2="264" y2="203" stroke="black" stroke-width="3" />
<line x1="556" y1="255" x2="243" y2="356" stroke="black" stroke-width="3" />
<line x1="322" y1="219" x2="264" y2="206" stroke="black" stroke-width="3" />
<line x1="222" y1="531" x2="513" y2="13" stroke="black" stroke-width="3" />
<line x1="112" y1="508" x2="127" y2="254" stroke="black" stroke-width="3" />
<line x1="59" y1="562" x2="387" y2="109" stroke="black" stroke-width="3" />
<line x1="579" y1="502" x2="80" y2="502" stroke="black" stroke-width="3" />
<line x1="192" y1="248" x2="280" y2="14" stroke="black" stroke-width="3" />
<line x1="60" y1="34" x2="33" y2="38" stroke="black" stroke-width="3" />
<line x1="425" y1="173" x2="138" y2="129" stroke="black" stroke-width="3" />
<line x1="19" y1="278" x2="250" y2="52" stroke="black" stroke-width="3" />
<line x1="570" y1="560" x2="214" y2="243" stroke="black" stroke-width="3" />
<line x1="101" y1="375" x2="52" y2="494" stroke="black" stroke-width="3" />
<line x1="413" y1="19" x2="187" y2="269" stroke="black" stroke-width="3" />
<line x1="105" y1="540" x2="56" y2="338" stroke="black" stroke-width="3" />
<line x1="447" y1="464" x2="487" y2="509" stroke="black" stroke-width="3" />
<line x1="115" y1="266" x2="163" y2="449" stroke="black" stroke-width="3" />
<line x1="371" y1="161" x2="403" y2="34" stroke="black" stroke-width="3" />
<line x1="58" y1="205" x2="501" y2="106" stroke="black" stroke-width="3" />
<line x1="546" y1="90" x2="69" y2="531" stroke="black" stroke-width="3" />
<line x1="435" y1="149" x2="88" y2="138" stroke="black" stroke-width="3" />
<line x1="54" y1="58" x2="68" y2="503" stroke="black" stroke-width="3" />
<line x1="54" y1="19" x2="457" y2="397" stroke="black" stroke-width="3" />
<line x1="533" y1="3" x2="107" y2="551" stroke="black" stroke-width="3" />
<line x1="494" y1="43" x2="134" y2="581" stroke="black" stroke-width="3" />
<line x1="541" y1="545" x2="212" y2="574" stroke="black" stroke-width="3" />
<line x1="114" y1="448" x2="364" y2="86" stroke="black" stroke-width="3" />
<line x1="100" y1="536" x2="393" y2="196" stroke="black" stroke-width="3" />
<line x1="321" y1="20" x2="551" y2="30" stroke="black" stroke-width="3" />
<line x1="61" y1="247" x2="412" y2="300" stroke="black" stroke-width="3" />
<line x1="64" y1="352" x2="88" y2="457" stroke="black" stroke-width="3" />
<line x1="303" y1="304" x2="211" y2="596" stroke="black" stroke-width="3" />
<line x1="237" y1="142" x2="442" y2="34" stroke="black" stroke-width="3" />
<line x1="562" y1="291" x2="385" y2="135" stroke="black" stroke-width="3" />
<line x1="116" y1="225" x2="222" y2="30" stroke="black" stroke-width="3" />
<line x1="504" y1="425" x2="200" y2="163" stroke="black" stroke-width="3" />
<line x1="563" y1="127" x2="525" y2="239" stroke="black" stroke-width="3" />
<line x1="100" y1="20" x2="149" y2="440" stroke="black" stroke-width="3" />
<line x1="425" y1="320" x2="354" y2="455" stroke="black" stroke-width="3" />
<line x1="509" y1="112" x2="512" y2="197" stroke="black" stroke-width="3" />
<line x1="273" y1="142" x2="481" y2="177" stroke="black" stroke-width="3" />
<line x1="458" y1="294" x2="169" y2="528" stroke="black" stroke-width="3" />
<line x1="35" y1="315" x2="341" y2="233" stroke="black" stroke-width="3" />
<line x1="446" y1="494" x2="39" y2="543" stroke="black" stroke-width="3" />
<line x1="131" y1="379" x2="113" y2="480" stroke="black" stroke-width="3" />
<line x1="497" y1="320" x2="444" y2="375" stroke="black" stroke-width="3" />
<line x1="299" y1="575" x2="20" y2="83" stroke="black" stroke-width="3" />
</svg>