<svg width="320" height="320" xmlns="http://www.w3.org/2000/svg">
<line x1="480" y1="179" x2="491" y2="90" stroke="black" stroke-width="3" />
<line x1="482" y1="120" x2="190" y2="558" stroke="black" stroke-width="3" />
<line x1="65" y1="473" x2="33" y2="410" stroke="black" stroke-width="3" />
<line x1="446" y1="151" x2="495" y2="151" stroke="black" stroke-width="3" />
<line x1="160" y1="363" x2="156" y2="385" stroke="black" stroke-width="3" />
<line x1="109" y1="139" x2="577" y2="570" stroke="black" stroke-width="3" />
<line x1="127" y1="176" x2="334" y2="46" stroke="black" stroke-width="3" />
<line x1="413" y1="288" x2="105" y2="167" stroke="black" stroke-width="3" />
<line x1="139" y1="380" x2="91" y2="139" stroke="black" stroke-width="3" />
<line x1="248" y1="566" x2="272" y2="397" stroke="black" stroke-width="3" />
<line x1="552" y1="171" x2="499" y2="486" stroke="black" stroke-width="3" />
<line x1="135" y1="218" x2="393" y2="510" stroke="black" stroke-width="3" />
<line x1="94" y1="600" x2="172" y2="479" stroke="black" stroke-width="3" />
<line x1="178" y1="248" x2="493" y2="517" stroke="black" stroke-width="3" />
<line x1="261" y1="273" x2="352" y2="501" stroke="black" stroke-width="3" />
<line x1="9" y1="332" x2="28" y2="182" stroke="black" stroke-width="3" />
<line x1="317" y1="479" x2="118" y2="119" stroke="black" stroke-width="3" />
<line x1="410" y1="162" x2="407" y2="382" stroke="black" stroke-width="3" />
<line x1="279" y1="475" x2="100" y2="319" stroke="black" stroke-width="3" />
<line x1="120" y1="397" x2="552" y2="480" stroke="black" stroke-width="3" />
<line x1="202" y1="75" x2="23" y2="369" stroke="black" stroke-width="3" />
<line x1="391" y1="139" x2="569" y2="100" stroke="black" stroke-width="3" />
<line x1="28" y1="48" x2="346" y2="481" stroke="black" stroke-width="3" />
<line x1="259" y1="202" x2="587" y2="23" stroke="black" stroke-width="3" />
<line x1="328" y1="439" x2="413" y2="477" stroke="black" stroke-width="3" />
<line x1="303" y1="519" x2="46" y2="106" stroke="black" stroke-width="3" />
<line x1="500" y1="206" x2="157" y2="327" stroke="black" stroke-width="3" />
<line x1="439" y1="188" x2="476" y2="200" stroke="black" stroke-width="3" />
<line x1="540" y1="182" x2="467" y2="346" stroke="black" stroke-width="3" />
<line x1="234" y1="309" x2="238" y2="597" stroke="black" stroke-width="3" />
<line x1="532" y1="563" x2="523" y2="225" stroke="black" stroke-width="3" />
<line x1="172" y1="217" x2="283" y2="38" stroke="black" stroke-width="3" />
<line x1="452" y1="510" x2="425" y2="154" stroke="black" stroke-width="3" />
<line x1="567" y1="342" x2="252" y2="212" stroke="black" stroke-width="3" />
<line x1="537" y1="462" x2="491" y2="271" stroke="black" stroke-width="3" />
<line x1="30" y1="433" x2="413" y2="347" stroke="black" stroke-width="3" />
<line x1="93" y1="545" x2="437" y2="68" stroke="black" stroke-width="3" />
<line x1="88" y1="505" x2="118" y2="509" stroke="black" stroke-width="3" />
<line x1="115" y1="360" x2="171" y2="57" stroke="black" stroke-width="3" />
<line x1="419" y1="37" x2="178" y2="315" stroke="black" stroke-width="3" />
<line x1="212" y1="77" x2="58" y2="198" stroke="black" stroke-width="3" />
<line x1="197" y1="194" x2="85" y2="265" stroke="black" stroke-width="3" />
<line x1="378" y1="6" x2="277" y2="16" stroke="black" stroke-width="3" />
<line x1="105" y1="207" x2="302" y2="243" stroke="black" stroke-width="3" />
<line x1="26" y1="125" x2="53" y2="165" stroke="black" stroke-width="3" />
<line x1="411" y1="484" x2="435" y2="509" stroke="black" stroke-width="3" />
<line x1="41" y1="505" x2="584" y2="573" stroke="black" stroke-width="3" />
<line x1="505" y1="536" x2="391" y2="466" stroke="black" stroke-width="3" />
<line x1="52" y1="587" x2="37" y2="331" stroke="black" stroke-width="3" />
<line x1="123" y1="495" x2="335" y2="496" stroke="black" stroke-width="3" />
<line x1="128" y1="557" x2="436" y2="77" stroke="black" stroke-width="3" />
<line x1="224" y1="345" x2="171" y2="366" stroke="black" stroke-width="3" />
<line x1="141" y1="368" x2="229" y2="386" stroke="black" stroke-width="3" />
<line x1="430" y1="152" x2="372" y2="399" stroke="black" stroke-width="3" />
<line x1="500" y1="242" x2="241" y2="62" stroke="black" stroke-width="3" />
<line x1="595" y1="588" x2="298" y2="264" stroke="black" stroke-width="3" />
<line x1="546" y1="444" x2="242" y2="325" stroke="black" stroke-width="3" />
<line x1="564" y1="347" x2="575" y2="349" stroke="black" stroke-width="3" />
<line x1="534" y1="71" x2="306" y2="94" stroke="black" stroke-width="3" />
<line x1="223" y1="474" x2="90" y2="421" stroke="black" stroke-width="3" />
<line x1="421" y1="210" x2="506" y2="548" stroke="black" stroke-width="3" />
<line x1="303" y1="24" x2="312" y2="323" stroke="black" stroke-width="3" />
<line x1="569" y1="92" x2="493" y2="22" stroke="black" stroke-width="3" />
<line x1="143" y1="144" x2="110" y2="541" stroke="black" stroke-width="3" />
<line x1="253" y1="477" x2="304" y2="360" stroke="black" stroke-width="3" />
<line x1="357" y1="367" x2="358" y2="90" stroke="black" stroke-width="3" />
<line x1="300" y1="417" x2="33" y2="90" stroke="black" stroke-width="3" />
<line x1="43" y1="594" x2="229" y2="55" stroke="black" stroke-width="3" />
<line x1="291" y1="530" x2="173" y2="506" stroke="black" stroke-width="3" />
<line x1="198" y1="7" x2="328" y2="514" stroke="black" stroke-width="3" />
<line x1="254" y1="556" x2="354" y2="294" stroke="black" stroke-width="3" />
<line x1="448" y1="481" x2="9" y2="599" stroke="black" stroke-width="3" />
<line x1="387" y1="52" x2="9" y2="477" stroke="black" stroke-width="3" />
<line x1="431" y1="60" x2="425" y2="360" stroke="black" stroke-width="3" />
<line x1="243" y1="446" x2="422" y2="284" stroke="black" stroke-width="3" />
<line x1="454" y1="494" x2="82" y2="266" stroke="black" stroke-width="3" />
<line x1="580" y1="27" x2="414" y2="572" stroke="black" stroke-width="3" />
<line x1="593" y1="188" x2="585" y2="154" stroke="black" stroke-width="3" />
<line x1="272" y1="547" x2="497" y2="591" stroke="black" stroke-width="3" />
<line x1="290" y1="463" x2="468" y2="214" stroke="black" stroke-width="3" />
<line x1="114" y1="120" x2="207" y2="156" stroke="black" stroke-width="3" />
<line x1="587" y1="108" x2="354" y2="445" stroke="black" stroke-width="3" />
<line x1="586" y1="448" x2="337" y2="190" stroke="black" stroke-width="3" />
<line x1="482" y1="383" x2="414" y2="220" stroke="black" stroke-width="3" />
<line x1="516" y1="182" x2="160" y2="88" stroke="black" stroke-width="3" />
<line x1="191" y1="517" x2="317" y2="508" stroke="black" stroke-width="3" />
<line x1="95" y1="390" x2="260" y2="150" stroke="black" stroke-width="3" />
<line x1="582" y1="47" x2="38" y2="240" stroke="black" stroke-width="3" />
<line x1="435" y1="308" x2="387" y2="6" stroke="black" stroke-width="3" />
<line x1="65" y1="234" x2="262" y2="116" stroke="black" stroke-width="3" />
<line x1="568" y1="445" x2="434" y2="61" stroke="black" stroke-width="3" />
<line x1="2" y1="201" x2="75" y2="153" stroke="black" stroke-width="3" />
<line x1="388" y1="29" x2="64" y2="541" stroke="black" stroke-width="3" />
<line x1="15" y1="574" x2="5" y2="201" stroke="black" stroke-width="3" />
<line x1="191" y1="18" x2="517" y2="500" stroke="black" stroke-width="3" />
<line x1="266" y1="54" x2="18" y2="173" stroke="black" stroke-width="3" />
<line x1="204" y1="504" x2="246" y2="375" stroke="black" stroke-width="3" />
<line x1="90" y1="108" x2="208" y2="443" stroke="black" stroke-width="3" />
<line x1="526" y1="574" x2="522" y2="73" stroke="black" stroke-width="3" />
<line x1="263" y1="456" x2="308" y2="247" stroke="black" stroke-width="3" />
</svg>